<?xml version="1.0" encoding="UTF-8" standalone="no"?><!DOCTYPE svg PUBLIC "-//W3C//DTD SVG 1.1//EN" "http://www.w3.org/Graphics/SVG/1.1/DTD/svg11.dtd">
<svg width="100%" height="100%" viewBox="0 0 6703 1563" version="1.1"
     xmlns="http://www.w3.org/2000/svg"
     xml:space="preserve"
     style="fill-rule:evenodd;clip-rule:evenodd;stroke-linecap:round;stroke-linejoin:round;stroke-miterlimit:1.5;"><rect id="Logo" x="0" y="0" width="6702.29" height="1562.31" style="fill:none;"/><g><g><path d="M1143.35,1504.64c-55.442,0.816 -94.786,5.111 -131.422,24.1c-2.947,2.592 -12.385,6.32 -12.385,6.32c-1.987,0.445 -4.053,0.681 -6.174,0.681c-15.521,-0 -28.121,-12.601 -28.121,-28.122c-0,-15.521 15.501,-26.9 28.121,-28.121c28.799,-2.787 103.275,-5.83 149.981,4.859l0,-64.986c-36.899,-19.013 -67.525,-30.134 -101.554,-31.659c-3.847,0.774 -13.886,-0.711 -13.886,-0.711c-1.944,-0.606 -3.851,-1.435 -5.689,-2.494c-13.446,-7.752 -18.068,-24.962 -10.316,-38.408c7.752,-13.446 26.865,-15.562 38.408,-10.317c19.107,8.683 59.104,29.253 93.037,52.335l0,-513.227l237.471,-0l-0,512.212c34.219,-23.459 75.038,-44.468 94.402,-53.268c11.543,-5.245 30.656,-3.129 38.409,10.317c7.752,13.446 3.129,30.656 -10.317,38.409c-1.837,1.059 -3.745,1.887 -5.689,2.493c0,0 -10.039,1.485 -13.886,0.711c-34.448,1.544 -65.408,12.921 -102.919,32.365l-0,66.228c46.706,-10.689 121.183,-7.646 149.981,-4.859c12.62,1.221 28.121,12.6 28.121,28.121c0,15.521 -12.6,28.122 -28.121,28.122c-2.121,-0 -4.187,-0.236 -6.174,-0.681c0,-0 -9.438,-3.728 -12.385,-6.32c-36.636,-18.989 -75.98,-23.284 -131.422,-24.1l-0,1.421l-237.471,-0l0,-1.421Z" style="fill:#4dabf4;"/><ellipse cx="1318.32" cy="1099.86" rx="12.498" ry="107.799" style="fill:#1d7bd5;"/><ellipse cx="1224.59" cy="1215.47" rx="12.498" ry="107.799" style="fill:#1d7bd5;"/><path d="M1278.7,1504.5c-0.64,-12.958 -0.994,-27.216 -0.994,-42.182c-0,-59.496 5.6,-107.799 12.498,-107.799c6.898,0 12.498,48.303 12.498,107.799c0,14.966 -0.354,29.224 -0.994,42.182l-23.008,0Z" style="fill:#1d7bd5;"/></g><rect x="680.903" y="201.537" width="146.857" height="243.72" style="fill:#dee1e6;stroke:#000;stroke-width:41.67px;"/><g><path d="M308.036,510.354l-0,206.224l813.437,0c17.245,0 31.246,14.001 31.246,31.246l0,95.824c0,17.246 14.001,31.247 31.246,31.247l162.48,-0c17.245,-0 31.246,-14.001 31.246,-31.247l0,4.164l0,-162.48c0,-96.573 -78.405,-174.978 -174.978,-174.978l-894.677,0" style="fill:#dee1e6;stroke:#000;stroke-width:41.67px;"/><path d="M1358.94,875.414c-44.031,13.397 -194.787,-16.198 -194.787,-16.198l-17.617,-141.227l-318.779,-20.462l-509.312,8.484c0,-0 9.19,-92.395 6.25,-179.514l112.486,-0c-10.527,50.746 57.824,92.733 209.348,140.607l465.567,-3.124c35.405,2.649 58.823,17.791 71.866,43.744c72.786,91.91 114.701,112.683 174.978,118.735l0,48.955" style="fill:#c7cbd1;"/><path d="M308.036,510.354l-0,206.224l813.437,0c17.245,0 31.246,14.001 31.246,31.246l0,95.824c0,17.246 14.001,31.247 31.246,31.247l162.48,-0c17.245,-0 31.246,-14.001 31.246,-31.247l0,4.164l0,-162.48c0,-96.573 -78.405,-174.978 -174.978,-174.978l-894.677,0" style="fill:none;stroke:#000;stroke-width:41.67px;"/></g><g><path d="M955.349,511.604l0,200.6c0,36.905 -29.962,66.867 -66.866,66.867l-259.968,-0c-36.905,-0 -66.866,-29.962 -66.866,-66.867l-0,-200.6c-0,-36.905 29.961,-66.867 66.866,-66.867l259.968,0c36.904,0 66.866,29.962 66.866,66.867Z" style="fill:#dee1e6;stroke:#000;stroke-width:41.67px;"/><path d="M672.572,447.862l0,218.723c3.875,28.891 21.084,49.771 58.505,58.505l219.585,-0l-6.249,25.859l-56.243,24.997l-290.588,-9.374l-31.247,-46.869l6.25,-231.221l24.997,-37.495l74.99,-3.125Z" style="fill:#c7cbd1;"/><path d="M955.349,511.604l0,200.6c0,36.905 -29.962,66.867 -66.866,66.867l-259.968,-0c-36.905,-0 -66.866,-29.962 -66.866,-66.867l-0,-200.6c-0,-36.905 29.961,-66.867 66.866,-66.867l259.968,0c36.904,0 66.866,29.962 66.866,66.867Z" style="fill:none;stroke:#000;stroke-width:41.67px;"/></g><g><path d="M306.473,421.337l0,384.327c0,18.969 -15.401,34.37 -34.37,34.37l-103.112,0c-18.97,0 -34.371,-15.401 -34.371,-34.37l-0,-384.327c-0,-18.97 15.401,-34.371 34.371,-34.371l103.112,0c18.969,0 34.37,15.401 34.37,34.371Z" style="fill:#dee1e6;stroke:#000;stroke-width:41.67px;"/><path d="M203.881,390.057l-0,362.454c12.425,21 51.916,37.576 98.948,52.92l-55.204,27.281c0,0 -39.702,3.469 -46.869,4.164c-7.166,0.695 -43.744,-4.164 -43.744,-4.164l-18.748,-39.581l6.249,-399.95l59.368,-3.124Z" style="fill:#c7cbd1;"/><path d="M306.473,421.337l0,384.327c0,18.969 -15.401,34.37 -34.37,34.37l-103.112,0c-18.97,0 -34.371,-15.401 -34.371,-34.37l-0,-384.327c-0,-18.97 15.401,-34.371 34.371,-34.371l103.112,0c18.969,0 34.37,15.401 34.37,34.371Z" style="fill:none;stroke:#000;stroke-width:41.67px;"/></g><path d="M724.648,128.109c-0,-0 -215.442,92.176 -307.774,92.176c-50.874,-0 -92.176,-41.303 -92.176,-92.176c-0,-50.873 41.302,-92.176 92.176,-92.176c92.332,0 307.774,92.176 307.774,92.176Z" style="fill:#dee1e6;stroke:#000;stroke-width:41.67px;"/><path d="M792.35,127.07c0,0 215.442,92.176 307.774,92.176c50.874,0 92.176,-41.303 92.176,-92.176c0,-50.873 -41.302,-92.176 -92.176,-92.176c-92.332,0 -307.774,92.176 -307.774,92.176Z" style="fill:#dee1e6;stroke:#000;stroke-width:41.67px;"/><circle cx="759.018" cy="129.59" r="103.03" style="fill:#dee1e6;stroke:#000;stroke-width:41.67px;"/></g><g transform="matrix(1039.24,0,0,1039.24,1924.41,1044.6)"><path d="M0.313,0.01c-0.057,0 -0.112,-0.011 -0.166,-0.032c-0.054,-0.021 -0.102,-0.05 -0.144,-0.089l0.083,-0.104c0.041,0.035 0.08,0.061 0.118,0.078c0.037,0.016 0.077,0.024 0.119,0.024c0.029,-0 0.055,-0.004 0.076,-0.011c0.022,-0.007 0.038,-0.017 0.05,-0.03c0.011,-0.014 0.017,-0.029 0.017,-0.047c0,-0.024 -0.009,-0.042 -0.026,-0.055c-0.018,-0.014 -0.047,-0.024 -0.089,-0.031l-0.139,-0.023c-0.06,-0.011 -0.105,-0.032 -0.136,-0.064c-0.031,-0.032 -0.046,-0.073 -0.046,-0.124c-0,-0.044 0.011,-0.081 0.033,-0.113c0.022,-0.032 0.054,-0.056 0.096,-0.073c0.041,-0.017 0.09,-0.026 0.146,-0.026c0.051,0 0.102,0.009 0.154,0.026c0.051,0.017 0.096,0.041 0.135,0.072l-0.078,0.108c-0.073,-0.056 -0.147,-0.084 -0.22,-0.084c-0.027,0 -0.049,0.004 -0.069,0.01c-0.019,0.007 -0.034,0.016 -0.044,0.027c-0.011,0.012 -0.016,0.026 -0.016,0.042c0,0.021 0.008,0.038 0.023,0.05c0.016,0.011 0.041,0.02 0.077,0.026l0.132,0.022c0.07,0.011 0.122,0.033 0.157,0.066c0.035,0.033 0.053,0.077 0.053,0.131c-0,0.045 -0.012,0.085 -0.037,0.118c-0.024,0.034 -0.058,0.06 -0.102,0.078c-0.045,0.019 -0.097,0.028 -0.157,0.028Z" style="fill-rule:nonzero;"/></g><g transform="matrix(1039.24,0,0,1039.24,2580.79,1044.6)"><path d="M0.054,0.204l-0,-0.725l0.135,-0l0,0.043c0.043,-0.034 0.092,-0.05 0.148,-0.05c0.05,-0 0.094,0.012 0.134,0.036c0.04,0.024 0.072,0.056 0.096,0.096c0.023,0.04 0.035,0.086 0.035,0.136c-0,0.05 -0.012,0.095 -0.036,0.135c-0.024,0.041 -0.056,0.073 -0.097,0.097c-0.04,0.023 -0.086,0.035 -0.136,0.035c-0.026,0 -0.051,-0.003 -0.075,-0.01c-0.024,-0.008 -0.046,-0.018 -0.067,-0.031l-0,0.238l-0.137,-0Zm0.261,-0.313c0.029,-0 0.055,-0.007 0.077,-0.02c0.023,-0.013 0.041,-0.031 0.055,-0.054c0.013,-0.023 0.02,-0.048 0.02,-0.077c-0,-0.029 -0.007,-0.054 -0.02,-0.077c-0.014,-0.023 -0.032,-0.041 -0.055,-0.054c-0.023,-0.013 -0.049,-0.02 -0.077,-0.02c-0.025,0 -0.048,0.004 -0.069,0.013c-0.021,0.008 -0.04,0.021 -0.055,0.037l-0,0.203c0.015,0.015 0.033,0.027 0.055,0.035c0.021,0.009 0.044,0.014 0.069,0.014Z" style="fill-rule:nonzero;"/></g><g transform="matrix(1039.24,0,0,1039.24,3237.24,1044.6)"><path d="M0.308,0.01c-0.052,0 -0.099,-0.012 -0.141,-0.036c-0.042,-0.024 -0.076,-0.056 -0.1,-0.097c-0.025,-0.041 -0.037,-0.087 -0.037,-0.137c-0,-0.051 0.012,-0.096 0.037,-0.137c0.024,-0.041 0.058,-0.074 0.1,-0.098c0.042,-0.024 0.089,-0.036 0.141,-0.036c0.052,0 0.099,0.012 0.142,0.036c0.042,0.024 0.075,0.056 0.1,0.097c0.024,0.041 0.036,0.087 0.036,0.138c0,0.05 -0.012,0.096 -0.036,0.137c-0.025,0.041 -0.058,0.073 -0.1,0.097c-0.043,0.024 -0.09,0.036 -0.142,0.036Zm0,-0.119c0.028,-0 0.052,-0.007 0.074,-0.02c0.021,-0.014 0.038,-0.032 0.051,-0.055c0.013,-0.023 0.019,-0.048 0.019,-0.076c0,-0.029 -0.006,-0.054 -0.019,-0.077c-0.012,-0.023 -0.03,-0.041 -0.052,-0.054c-0.021,-0.014 -0.046,-0.021 -0.073,-0.021c-0.027,0 -0.051,0.007 -0.073,0.021c-0.022,0.013 -0.039,0.031 -0.052,0.054c-0.013,0.023 -0.019,0.048 -0.019,0.077c-0,0.028 0.006,0.053 0.019,0.076c0.013,0.023 0.03,0.041 0.052,0.055c0.022,0.013 0.046,0.02 0.073,0.02Z" style="fill-rule:nonzero;"/></g><g transform="matrix(1039.24,0,0,1039.24,3877.85,1044.6)"><path d="M0.256,0.01c-0.04,0 -0.076,-0.009 -0.107,-0.026c-0.031,-0.018 -0.055,-0.042 -0.072,-0.074c-0.018,-0.031 -0.027,-0.067 -0.027,-0.108l0,-0.323l0.137,-0l0,0.303c0,0.033 0.01,0.06 0.03,0.08c0.02,0.02 0.046,0.03 0.079,0.03c0.023,-0 0.044,-0.005 0.062,-0.014c0.018,-0.009 0.033,-0.022 0.045,-0.038l-0,-0.361l0.137,-0l-0,0.521l-0.137,-0l-0,-0.042c-0.04,0.035 -0.089,0.052 -0.147,0.052Z" style="fill-rule:nonzero;"/></g><g transform="matrix(1039.24,0,0,1039.24,4494.67,1044.6)"><path d="M0.301,0.008c-0.058,-0 -0.102,-0.013 -0.131,-0.039c-0.03,-0.027 -0.045,-0.065 -0.045,-0.116l0,-0.259l-0.107,-0l-0,-0.115l0.107,-0l0,-0.134l0.137,-0.03l-0,0.164l0.149,-0l-0,0.115l-0.149,-0l-0,0.231c-0,0.024 0.005,0.041 0.016,0.052c0.011,0.01 0.03,0.015 0.056,0.015c0.013,-0 0.026,-0.001 0.037,-0.003c0.011,-0.002 0.023,-0.005 0.036,-0.009l-0,0.113c-0.014,0.004 -0.032,0.008 -0.052,0.011c-0.021,0.002 -0.039,0.004 -0.054,0.004Z" style="fill-rule:nonzero;"/></g><g transform="matrix(1039.24,0,0,1039.24,4935.95,1044.6)"><path d="M0.063,-0l0,-0.7l0.187,0l0.191,0.377l0.192,-0.377l0.186,0l-0,0.7l-0.137,-0l-0,-0.515l-0.242,0.465l-0.243,-0.466l0,0.516l-0.134,-0Z" style="fill-rule:nonzero;"/></g><g transform="matrix(1039.24,0,0,1039.24,5852.77,1044.6)"><path d="M0.408,0.01c-0.052,0 -0.101,-0.009 -0.146,-0.027c-0.045,-0.019 -0.085,-0.044 -0.119,-0.077c-0.034,-0.033 -0.06,-0.071 -0.079,-0.114c-0.019,-0.044 -0.028,-0.091 -0.028,-0.142c0,-0.051 0.009,-0.099 0.028,-0.142c0.019,-0.044 0.046,-0.082 0.08,-0.115c0.034,-0.033 0.073,-0.058 0.118,-0.076c0.046,-0.019 0.094,-0.028 0.146,-0.028c0.039,0 0.076,0.005 0.112,0.016c0.036,0.011 0.07,0.026 0.101,0.045c0.031,0.02 0.057,0.043 0.079,0.07l-0.098,0.097c-0.025,-0.031 -0.055,-0.055 -0.088,-0.071c-0.033,-0.016 -0.068,-0.023 -0.106,-0.023c-0.031,-0 -0.061,0.005 -0.088,0.017c-0.027,0.011 -0.051,0.027 -0.071,0.048c-0.02,0.02 -0.036,0.044 -0.047,0.072c-0.011,0.027 -0.017,0.057 -0.017,0.09c0,0.032 0.006,0.062 0.017,0.089c0.012,0.028 0.028,0.052 0.048,0.072c0.021,0.021 0.045,0.037 0.073,0.048c0.028,0.011 0.058,0.017 0.09,0.017c0.037,0 0.071,-0.008 0.103,-0.023c0.032,-0.015 0.06,-0.037 0.084,-0.066l0.096,0.094c-0.022,0.026 -0.049,0.049 -0.079,0.069c-0.031,0.019 -0.064,0.034 -0.1,0.045c-0.036,0.01 -0.072,0.015 -0.109,0.015Z" style="fill-rule:nonzero;"/></g><g transform="matrix(1039.24,0,0,1039.24,6598.61,1044.6)"></g></svg>