<?xml version="1.0" encoding="UTF-8" standalone="no"?>
<!DOCTYPE svg PUBLIC "-//W3C//DTD SVG 1.1//EN" "http://www.w3.org/Graphics/SVG/1.1/DTD/svg11.dtd">
<svg width="100%" height="100%" viewBox="0 0 2293 2251" version="1.1" xmlns="http://www.w3.org/2000/svg" xmlns:xlink="http://www.w3.org/1999/xlink" xml:space="preserve" xmlns:serif="http://www.serif.com/" style="fill-rule:evenodd;clip-rule:evenodd;stroke-linecap:round;stroke-linejoin:round;stroke-miterlimit:1.5;">
    <g id="SPOUT" transform="matrix(0.388149,0,0,0.381046,0,0)">
        <rect x="0" y="0" width="5905.51" height="5905.51" style="fill:none;"/>
        <g transform="matrix(-2.57633,0,0,2.62436,9881.19,-2436.79)">
            <g>
                <g transform="matrix(1.03181,0,0,1,-92.439,0)">
                    <rect x="2609.68" y="1632.24" width="479.688" height="159.796" style="fill:white;stroke:rgb(31,69,113);stroke-width:41.01px;"/>
                </g>
                <g transform="matrix(1.00232,0,0,1.05455,-10.805,-68.4484)">
                    <path d="M2700.8,1074.07C2686.28,1097.94 2677.97,1125.64 2677.97,1155.17C2677.97,1184.7 2686.28,1212.4 2700.8,1236.27L2290.91,1236.27L2290.91,1074.07L2700.8,1074.07ZM2996.88,1236.27C3011.39,1212.4 3019.7,1184.7 3019.7,1155.17C3019.7,1125.64 3011.39,1097.94 2996.88,1074.07L3406.76,1074.07L3406.76,1236.27L2996.88,1236.27Z" style="fill:rgb(164,212,255);stroke:rgb(31,69,113);stroke-width:40.5px;"/>
                </g>
                <g transform="matrix(1.00852,0,0,1.14313,-24.9582,-176.803)">
                    <path d="M2764.77,1292.33C2788.76,1303.77 2816.2,1310.26 2845.36,1310.26C2876.42,1310.26 2905.55,1302.89 2930.61,1290.02L2930.61,1582.54L2764.77,1582.54L2764.77,1292.33Z" style="fill:rgb(164,212,255);stroke:rgb(31,69,113);stroke-width:38.65px;"/>
                </g>
                <g transform="matrix(1.45612,0,0,1.45612,-748.038,-321.723)">
                    <circle cx="2467.3" cy="1010.54" r="117.614" style="fill:white;stroke:rgb(31,69,113);stroke-width:28.61px;"/>
                </g>
                <path d="M3554.4,2366.63L3335.65,2242.92L3335.65,1865.97L3335.65,2063.08L3335.65,1686.13L3554.4,1562.42" style="fill:white;stroke:rgb(31,69,113);stroke-width:41.67px;"/>
                <g transform="matrix(25.3291,0,0,1,-89152.8,0)">
                    <rect x="3660.11" y="1562.42" width="9.499" height="804.214" style="fill:rgb(164,212,255);stroke:rgb(31,69,113);stroke-width:2.32px;"/>
                </g>
                <path d="M3333.49,1792.35L2600.26,1792.04C2218.29,1793.89 1976.32,2117.18 2006.04,2518.14L2371.09,2518.14C2369.65,2377.67 2362.2,2159.55 2600.26,2160.85L3334.96,2161.53L3333.49,1792.35Z" style="fill:rgb(164,212,255);stroke:rgb(31,69,113);stroke-width:41.67px;"/>
                <path d="M2006.04,2518.14L1958.44,2671.93L2301.66,2671.93L2072.93,2671.93L2416.15,2671.93L2368.56,2518.14" style="fill:white;stroke:rgb(31,69,113);stroke-width:41.67px;"/>
                <path d="M2006.04,2518.14L2368.56,2518.14L2006.04,2518.14Z" style="fill:white;stroke:rgb(31,69,113);stroke-width:41.67px;"/>
            </g>
            <g>
                <g transform="matrix(1,0,0,1,-4.78801,-3.11737)">
                    <path d="M1964.38,2780.38L1964.38,2901.03" style="fill:none;stroke:rgb(31,69,113);stroke-width:41.67px;"/>
                </g>
                <g transform="matrix(1,0,0,1,220.162,-3.11737)">
                    <path d="M1964.38,2780.38L1964.38,2901.03" style="fill:none;stroke:rgb(31,69,113);stroke-width:41.67px;"/>
                </g>
                <g transform="matrix(1,0,0,1,456.187,-3.11737)">
                    <path d="M1964.38,2780.38L1964.38,2901.03" style="fill:none;stroke:rgb(31,69,113);stroke-width:41.67px;"/>
                </g>
                <g transform="matrix(1,0,0,1,-4.78801,227.818)">
                    <path d="M1964.38,2780.38L1964.38,2901.03" style="fill:none;stroke:rgb(31,69,113);stroke-width:41.67px;"/>
                </g>
                <g transform="matrix(1,0,0,1,220.162,227.818)">
                    <path d="M1964.38,2780.38L1964.38,2901.03" style="fill:none;stroke:rgb(31,69,113);stroke-width:41.67px;"/>
                </g>
                <g transform="matrix(1,0,0,1,456.187,227.818)">
                    <path d="M1964.38,2780.38L1964.38,2901.03" style="fill:none;stroke:rgb(31,69,113);stroke-width:41.67px;"/>
                </g>
            </g>
            <g transform="matrix(1.25401,0,0,1.25401,-497.464,-369.839)">
                <path d="M1835.73,1645.34C1817.96,1656.62 1796.89,1663.15 1774.31,1663.15C1710.93,1663.15 1659.49,1611.7 1659.49,1548.33C1659.49,1489.27 1704.18,1440.56 1761.57,1434.21C1761.46,1432.29 1761.4,1430.36 1761.4,1428.41C1761.4,1374.03 1805.55,1329.89 1859.92,1329.89C1872.73,1329.89 1884.96,1332.34 1896.19,1336.79C1899.97,1285.86 1942.55,1245.66 1994.43,1245.66C2048.81,1245.66 2092.95,1289.81 2092.95,1344.18C2092.95,1348.18 2092.72,1352.12 2092.25,1355.99C2132.76,1363.52 2164.6,1395.86 2171.37,1436.63C2188.34,1422.77 2210.01,1414.45 2233.62,1414.45C2287.99,1414.45 2332.14,1458.6 2332.14,1512.97C2332.14,1567.35 2287.99,1611.49 2233.62,1611.49C2223.26,1611.49 2213.28,1609.89 2203.9,1606.92C2191.75,1647.56 2154.05,1677.22 2109.49,1677.22C2090.69,1677.22 2073.12,1671.94 2058.17,1662.8C2044.83,1710.73 2000.82,1745.95 1948.65,1745.95C1890.33,1745.95 1842.21,1701.94 1835.73,1645.34Z" style="fill:white;stroke:rgb(31,69,113);stroke-width:33.23px;"/>
            </g>
            <g transform="matrix(1.25401,0,0,1.25401,542.31,804.653)">
                <path d="M1835.73,1645.34C1817.96,1656.62 1796.89,1663.15 1774.31,1663.15C1710.93,1663.15 1659.49,1611.7 1659.49,1548.33C1659.49,1489.27 1704.18,1440.56 1761.57,1434.21C1761.46,1432.29 1761.4,1430.36 1761.4,1428.41C1761.4,1374.03 1805.55,1329.89 1859.92,1329.89C1872.73,1329.89 1884.96,1332.34 1896.19,1336.79C1899.97,1285.86 1942.55,1245.66 1994.43,1245.66C2048.81,1245.66 2092.95,1289.81 2092.95,1344.18C2092.95,1348.18 2092.72,1352.12 2092.25,1355.99C2132.76,1363.52 2164.6,1395.86 2171.37,1436.63C2188.34,1422.77 2210.01,1414.45 2233.62,1414.45C2287.99,1414.45 2332.14,1458.6 2332.14,1512.97C2332.14,1567.35 2287.99,1611.49 2233.62,1611.49C2223.26,1611.49 2213.28,1609.89 2203.9,1606.92C2191.75,1647.56 2154.05,1677.22 2109.49,1677.22C2090.69,1677.22 2073.12,1671.94 2058.17,1662.8C2044.83,1710.73 2000.82,1745.95 1948.65,1745.95C1890.33,1745.95 1842.21,1701.94 1835.73,1645.34Z" style="fill:white;stroke:rgb(31,69,113);stroke-width:33.23px;"/>
            </g>
        </g>
    </g>
</svg>
